<?xml version="1.0" encoding="UTF-8" standalone="no"?>
<svg
   xmlns:dc="http://purl.org/dc/elements/1.1/"
   xmlns:cc="http://creativecommons.org/ns#"
   xmlns:rdf="http://www.w3.org/1999/02/22-rdf-syntax-ns#"
   xmlns:svg="http://www.w3.org/2000/svg"
   xmlns="http://www.w3.org/2000/svg"
   xmlns:sodipodi="http://sodipodi.sourceforge.net/DTD/sodipodi-0.dtd"
   xmlns:inkscape="http://www.inkscape.org/namespaces/inkscape"
   sodipodi:docname="logo.svg"
   inkscape:version="1.0beta2 (2b71d25, 2019-12-03)"
   id="svg144"
   version="1.1"
   viewBox="0 0 79.374999 79.374999"
   height="300"
   width="300">
  <defs
     id="defs138" />
  <sodipodi:namedview
     inkscape:window-maximized="0"
     inkscape:window-y="23"
     inkscape:window-x="0"
     inkscape:window-height="755"
     inkscape:window-width="1280"
     units="px"
     showgrid="false"
     inkscape:document-rotation="0"
     inkscape:current-layer="layer1"
     inkscape:document-units="mm"
     inkscape:cy="152.66711"
     inkscape:cx="228.69808"
     inkscape:zoom="1.6721067"
     inkscape:pageshadow="2"
     inkscape:pageopacity="0.0"
     borderopacity="1.0"
     bordercolor="#666666"
     pagecolor="#ffffff"
     id="base" />
  <metadata
     id="metadata141">
    <rdf:RDF>
      <cc:Work
         rdf:about="">
        <dc:format>image/svg+xml</dc:format>
        <dc:type
           rdf:resource="http://purl.org/dc/dcmitype/StillImage" />
        <dc:title></dc:title>
      </cc:Work>
    </rdf:RDF>
  </metadata>
  <g
     id="layer1"
     inkscape:groupmode="layer"
     inkscape:label="Layer 1">
    <g
       transform="matrix(1.1666667,0,0,1.1666667,-7.3327531,-7.3327487)"
       id="g197">
      <circle
         id="circle119"
         r="31.75"
         cy="40.30307"
         cx="40.303074"
         class="cls-1"
         style="fill:#6900e9;stroke-width:0.793749" />
      <path
         id="path121"
         d="m 57.273447,30.563762 a 23.8125,23.8125 0 0 1 -1.968501,-6.929436 v -0.47625 a 2.143125,2.143125 0 1 0 -4.28625,0 v 0.47625 a 23.876,23.876 0 0 1 -1.984374,6.929436 c -1.976439,4.167189 -4.921251,6.278565 -8.731251,6.278565 -3.81,0 -6.770688,-2.0955 -8.731251,-6.278565 a 23.8125,23.8125 0 0 1 -1.944687,-6.699249 2.2145625,2.2145625 0 0 0 0,-0.460374 v -0.24606 a 2.143125,2.143125 0 1 0 -4.28625,0 v 0.587376 0 0.13494 c -0.21432,1.587501 -1.452561,9.056688 -6.429375,11.90625 v 18.089562 h 6.429375 v 3.571875 a 2.143125,2.143125 0 0 0 4.28625,0 v -3.571875 h 21.43125 v 3.571875 a 2.143125,2.143125 0 1 0 4.28625,0 v -3.571875 h 6.389688 V 35.762831 A 11.191875,11.191875 0 0 1 57.273447,30.563768 Z M 25.301196,49.589951 H 23.158071 V 37.985327 a 15.216188,15.216188 0 0 0 2.143125,-2.341563 z m 6.397626,0 H 29.587446 V 35.612015 a 15.390812,15.390812 0 0 0 2.111376,2.309811 z m 6.461124,0 h -2.174874 v -9.144 a 12.41425,12.41425 0 0 0 2.174874,0.523875 z m 6.397626,0 h -2.111376 v -8.620125 a 12.231688,12.231688 0 0 0 2.111376,-0.507999 z m 6.461124,0 H 48.843822 V 37.993265 a 14.620875,14.620875 0 0 0 2.174874,-2.38125 z m 6.429375,0 H 55.304946 V 35.612015 a 15.343187,15.343187 0 0 0 2.143125,2.38125 z"
         class="cls-2"
         style="fill:#ffffff;stroke-width:0.793749"
         inkscape:connector-curvature="0" />
    </g>
  </g>
</svg>
